<?xml version="1.0" standalone="no"?><svg xmlns="http://www.w3.org/2000/svg" viewBox="0 0 1440 320"><path fill="#a2d9ff" fill-opacity="1" d="M0,128L30,149.3C60,171,120,213,180,218.7C240,224,300,192,360,197.3C420,203,480,245,540,240C600,235,660,181,720,149.3C780,117,840,107,900,122.7C960,139,1020,181,1080,192C1140,203,1200,181,1260,186.7C1320,192,1380,224,1410,240L1440,256L1440,320L1410,320C1380,320,1320,320,1260,320C1200,320,1140,320,1080,320C1020,320,960,320,900,320C840,320,780,320,720,320C660,320,600,320,540,320C480,320,420,320,360,320C300,320,240,320,180,320C120,320,60,320,30,320L0,320Z"></path></svg>